<?xml version="1.0" standalone="no"?>
<!DOCTYPE svg PUBLIC "-//W3C//DTD SVG 20010904//EN"
 "http://www.w3.org/TR/2001/REC-SVG-20010904/DTD/svg10.dtd">
<svg version="1.0" xmlns="http://www.w3.org/2000/svg"
 width="3154.000000pt" height="3154.000000pt" viewBox="0 0 3154.000000 3154.000000"
 preserveAspectRatio="xMidYMid meet">
<metadata>
Created by potrace 1.14, written by Peter Selinger 2001-2017
</metadata>
<g transform="translate(0.000000,3154.000000) scale(0.100000,-0.100000)"
fill="#000000" stroke="none">
<path d="M20905 21015 c-269 -33 -537 -120 -711 -230 -281 -179 -426 -417
-441 -726 -11 -216 27 -366 157 -624 63 -126 80 -169 80 -203 0 -83 -29 -104
-174 -126 -156 -23 -161 -33 -159 -331 l1 -210 -23 85 c-135 493 -492 866
-985 1028 -565 186 -1238 74 -1715 -287 -225 -170 -389 -368 -510 -616 -102
-210 -148 -379 -164 -610 -28 -384 75 -769 290 -1087 87 -128 284 -323 414
-410 425 -282 976 -370 1515 -242 237 56 508 169 685 285 44 29 121 93 170
143 175 176 226 350 149 511 -47 101 -142 185 -207 185 -40 0 -95 -24 -227
-99 -149 -85 -241 -124 -369 -159 -81 -21 -119 -25 -241 -26 -126 -1 -155 2
-220 22 -254 80 -461 259 -520 451 -33 106 -28 150 23 203 1 1 380 5 842 8
l840 5 55 26 c133 63 200 203 200 420 l0 92 26 -24 c24 -23 33 -24 187 -29
144 -5 167 -8 210 -29 59 -29 93 -78 107 -153 16 -86 -43 -857 -71 -933 -29
-79 -82 -125 -227 -199 -184 -94 -225 -145 -225 -283 1 -227 203 -365 630
-430 170 -26 943 -26 1172 0 459 52 710 149 786 302 16 32 20 61 20 140 0 88
-3 107 -25 150 -31 60 -88 101 -192 140 -251 92 -325 166 -368 363 -34 162
-44 274 -45 502 0 258 10 312 67 366 50 48 87 56 283 63 187 7 220 15 245 54
9 14 19 112 32 289 21 296 20 306 -37 339 -54 32 -147 40 -376 33 -119 -4
-227 -4 -240 -1 -18 5 -32 23 -52 65 -39 86 -131 167 -370 325 -239 159 -327
238 -379 344 -27 55 -34 82 -36 143 -3 66 0 81 25 130 18 36 43 65 71 85 40
27 51 30 125 30 132 0 167 -22 372 -230 94 -95 192 -189 219 -210 194 -145
454 -176 640 -77 28 15 79 55 114 89 116 115 167 276 138 441 -58 331 -341
584 -767 687 -221 53 -565 70 -814 40z m-2706 -1870 c141 -63 232 -232 218
-402 -6 -75 -33 -124 -85 -149 -31 -16 -73 -20 -262 -25 -298 -9 -359 3 -402
81 -16 29 -19 50 -16 120 3 71 10 97 36 155 18 38 49 89 69 113 44 54 129 111
191 129 71 20 178 10 251 -22z"/>
<path d="M28555 20994 c-16 -2 -73 -9 -125 -15 -396 -44 -809 -132 -1050 -224
-394 -150 -553 -334 -485 -561 21 -71 64 -116 177 -186 259 -159 308 -288 327
-863 10 -283 -3 -1335 -18 -1525 -21 -261 -45 -400 -80 -468 -28 -56 -90 -106
-183 -152 -132 -64 -169 -124 -149 -235 14 -76 42 -125 102 -179 91 -81 244
-139 454 -170 231 -35 851 -43 1110 -16 403 44 596 171 595 394 0 55 -25 121
-56 148 -10 9 -64 39 -119 66 -155 78 -188 122 -205 284 -13 122 -13 1674 0
2063 11 341 21 508 55 990 27 377 24 448 -19 534 -51 99 -154 135 -331 115z"/>
<path d="M5779 19898 c-175 -122 -209 -143 -304 -189 -168 -81 -231 -94 -435
-93 -155 0 -199 4 -385 37 -361 62 -437 71 -630 71 -333 0 -650 -74 -950 -223
-424 -210 -652 -506 -672 -871 -13 -255 74 -462 314 -742 62 -72 115 -140 119
-150 8 -27 -15 -49 -146 -139 -149 -101 -210 -156 -270 -242 -70 -99 -92 -162
-97 -282 -8 -167 32 -247 223 -442 62 -64 115 -124 117 -134 8 -29 -16 -52
-104 -103 -110 -64 -172 -124 -212 -205 -30 -62 -32 -71 -32 -181 0 -94 4
-127 23 -181 104 -301 435 -525 924 -624 231 -46 370 -58 683 -59 300 -1 441
9 665 45 675 111 1175 425 1391 874 167 348 134 699 -86 933 -153 162 -344
245 -628 273 -148 14 -256 7 -797 -52 -550 -60 -668 -61 -818 -9 -114 40 -177
121 -169 218 4 56 24 91 71 126 27 20 40 21 379 21 371 0 412 4 655 56 229 49
497 158 664 269 96 63 236 194 293 274 139 195 197 433 168 688 -5 42 -6 85
-2 95 4 10 42 59 84 108 210 245 298 455 266 634 -22 120 -75 207 -148 237
-52 23 -75 17 -154 -38z m-1571 -673 c153 -70 246 -266 273 -580 30 -332 -60
-552 -253 -621 -66 -24 -183 -22 -240 4 -169 75 -280 362 -282 732 -1 162 17
244 72 330 100 156 268 209 430 135z m-603 -3016 c231 -25 402 -26 640 -4 287
27 370 14 442 -69 69 -77 49 -203 -46 -289 -106 -96 -312 -147 -591 -147 -463
0 -780 172 -780 423 0 82 37 120 110 111 19 -2 121 -14 225 -25z"/>
<path d="M7880 19763 c-225 -21 -406 -55 -604 -113 -509 -149 -870 -396 -956
-656 -30 -89 -26 -216 10 -289 31 -63 101 -134 165 -165 45 -22 63 -25 170
-25 139 0 195 14 294 72 88 52 180 146 302 310 178 239 263 305 397 305 177 0
273 -139 302 -438 20 -204 10 -332 -28 -383 -36 -49 -61 -54 -312 -62 -259 -8
-393 -24 -578 -70 -426 -105 -724 -318 -868 -622 -52 -112 -75 -214 -75 -342
0 -461 275 -775 781 -891 36 -8 142 -18 236 -21 317 -11 500 41 791 224 136
85 185 106 225 97 21 -4 69 -42 144 -114 182 -174 292 -216 549 -207 113 4
158 10 230 31 216 64 433 201 561 355 107 129 174 303 159 412 -9 66 -34 85
-117 92 -37 4 -81 13 -97 21 -45 24 -89 84 -112 153 -46 139 -50 198 -59 803
-8 610 -9 619 -61 780 -80 245 -273 451 -544 579 -249 119 -641 190 -905 164z
m16 -1932 c31 -14 47 -30 65 -67 22 -46 24 -60 24 -214 -1 -230 -27 -332 -103
-406 -92 -89 -253 -77 -346 27 -183 203 -81 584 177 665 61 18 135 17 183 -5z"/>
<path d="M11415 19743 c-118 -15 -477 -79 -605 -108 -633 -144 -960 -333 -960
-555 1 -85 26 -129 102 -178 112 -70 155 -138 195 -301 13 -54 17 -154 20
-561 5 -516 0 -610 -37 -754 -36 -140 -71 -198 -196 -321 -130 -128 -147 -157
-148 -241 0 -180 191 -282 606 -324 164 -17 747 -8 885 14 210 32 370 88 457
160 50 41 92 114 101 177 9 60 -13 146 -64 246 -48 97 -74 181 -92 298 -19
125 -20 1068 -1 1168 40 213 138 310 312 311 189 1 293 -136 330 -434 5 -46
10 -283 10 -526 0 -659 -5 -677 -232 -881 -59 -52 -83 -123 -76 -224 9 -126
73 -195 228 -243 188 -60 420 -80 843 -73 335 5 443 16 605 63 242 70 352 176
352 337 0 76 -11 104 -71 182 -133 176 -164 379 -157 1055 4 377 6 410 26 484
50 181 142 260 302 260 162 0 252 -84 307 -290 l27 -99 4 -534 c4 -562 1 -619
-41 -715 -11 -27 -48 -86 -81 -130 -77 -105 -97 -150 -97 -229 -1 -79 22 -129
85 -184 140 -124 420 -191 828 -200 486 -11 793 57 947 208 81 79 112 199 76
286 -8 20 -44 75 -79 122 -82 110 -111 169 -130 264 -14 65 -16 183 -16 844 0
625 -3 786 -15 866 -62 414 -328 679 -750 748 -119 19 -352 17 -455 -5 -248
-52 -481 -182 -715 -396 -124 -113 -184 -160 -205 -160 -25 0 -66 50 -130 160
-39 67 -81 122 -145 186 -78 79 -103 98 -185 137 -52 25 -125 53 -163 62 -303
73 -663 23 -932 -132 -115 -65 -203 -134 -343 -266 -135 -129 -169 -151 -212
-142 -66 14 -81 61 -90 275 -6 153 -9 180 -29 218 -34 66 -93 88 -196 75z"/>
<path d="M23815 19739 c-714 -39 -1189 -146 -1345 -301 -57 -57 -70 -111 -49
-208 14 -67 55 -113 138 -155 137 -69 197 -135 240 -263 48 -142 52 -196 61
-787 8 -609 15 -705 70 -922 122 -484 455 -713 1036 -713 301 0 466 55 772
260 168 111 186 120 243 120 64 0 95 -38 104 -126 14 -143 31 -178 108 -220
50 -28 58 -29 207 -32 249 -6 607 40 885 113 323 84 513 193 587 335 18 35 23
60 22 115 -1 112 -33 154 -173 225 -85 43 -131 85 -158 145 -17 38 -18 101
-18 1120 l0 1080 -23 50 c-30 65 -83 118 -146 147 -48 21 -63 23 -226 21 -96
-1 -251 -9 -345 -17 -548 -52 -909 -147 -1052 -279 -58 -54 -73 -84 -73 -152
0 -100 38 -151 162 -216 35 -19 86 -57 115 -85 101 -100 117 -232 110 -929 -4
-506 -7 -532 -69 -664 -65 -138 -170 -203 -328 -204 -108 0 -170 25 -235 94
-52 56 -76 103 -107 216 -22 77 -22 88 -28 1098 -5 995 -5 1021 -25 1060 -32
62 -70 78 -194 81 -58 1 -178 -2 -266 -7z"/>
<path d="M7750 13103 l0 -466 -60 57 c-206 197 -597 195 -862 -4 -115 -86
-215 -242 -260 -406 -31 -115 -31 -374 0 -488 46 -168 135 -308 254 -401 129
-101 246 -143 423 -152 200 -9 339 39 458 158 l67 69 0 -84 c0 -47 3 -91 6
-100 5 -14 33 -16 205 -16 l199 0 0 1150 0 1150 -215 0 -215 0 0 -467z m-225
-644 c184 -69 290 -276 256 -500 -30 -193 -159 -330 -338 -358 -214 -34 -407
97 -458 310 -28 118 -13 265 36 361 30 59 110 140 166 168 104 52 230 60 338
19z"/>
<path d="M12982 12423 l3 -1148 218 -3 217 -2 0 1150 0 1150 -220 0 -220 0 2
-1147z"/>
<path d="M23007 13153 c-6 -185 -20 -235 -77 -286 -43 -40 -106 -57 -205 -57
l-65 0 0 -165 0 -165 150 0 150 0 0 -399 c0 -219 4 -420 9 -447 34 -179 147
-303 312 -344 24 -6 131 -14 237 -17 l192 -6 0 167 0 166 -90 0 c-103 0 -144
13 -182 58 -42 51 -48 106 -48 477 l0 345 160 0 160 0 0 165 0 164 -157 3
-158 3 -3 248 -2 247 -189 0 -188 0 -6 -157z"/>
<path d="M8930 12834 c-316 -61 -526 -244 -610 -534 -33 -114 -39 -332 -12
-463 49 -235 194 -423 397 -512 186 -83 438 -102 640 -50 187 49 361 189 444
358 24 48 41 91 37 94 -3 4 -91 19 -194 35 l-187 28 -15 -22 c-73 -108 -125
-147 -230 -174 -175 -44 -358 32 -437 183 -26 49 -53 138 -53 173 0 6 216 10
569 10 l568 0 6 58 c6 53 -5 208 -19 270 -48 219 -170 384 -348 471 -126 62
-178 73 -366 76 -91 2 -176 1 -190 -1z m315 -323 c93 -41 161 -130 180 -233
l7 -38 -351 0 c-396 0 -367 -7 -336 79 34 98 121 177 225 206 79 21 210 15
275 -14z"/>
<path d="M11950 12834 c-138 -27 -264 -81 -365 -157 -138 -104 -234 -274 -265
-469 -18 -112 -8 -332 20 -428 98 -340 379 -532 780 -532 153 -1 267 24 387
83 140 69 271 211 324 348 l19 51 -23 5 c-12 2 -85 14 -162 25 -77 11 -154 22
-171 25 -29 5 -34 1 -64 -45 -69 -107 -168 -156 -315 -154 -192 2 -322 103
-371 287 -26 97 -89 87 555 87 l569 0 4 58 c5 93 -9 235 -32 319 -67 245 -231
410 -475 478 -59 17 -356 30 -415 19z m317 -323 c87 -39 160 -133 178 -233 l7
-38 -356 0 c-196 0 -356 2 -356 3 0 21 46 126 69 161 25 36 109 105 130 106 3
1 29 7 56 15 74 22 206 14 272 -14z"/>
<path d="M14168 12825 c-325 -62 -544 -258 -624 -560 -14 -53 -18 -106 -18
-220 0 -180 14 -248 81 -385 38 -79 59 -108 132 -181 76 -75 101 -93 192 -137
169 -81 343 -111 533 -92 429 44 698 299 735 698 16 178 -10 338 -79 477 -93
190 -268 326 -495 386 -106 27 -346 35 -457 14z m365 -357 c187 -87 282 -308
232 -543 -30 -143 -105 -242 -225 -299 -61 -29 -72 -31 -180 -31 -104 0 -121
3 -172 27 -111 52 -190 150 -223 273 -17 67 -20 218 -4 284 25 110 100 217
186 268 74 43 120 53 228 50 84 -2 109 -7 158 -29z"/>
<path d="M16050 12824 c-103 -22 -199 -75 -263 -144 -31 -33 -58 -60 -61 -60
-4 0 -6 36 -6 79 0 44 -3 86 -6 95 -5 14 -33 16 -205 16 l-199 0 0 -1145 0
-1145 213 2 212 3 3 462 2 462 52 -55 c62 -66 162 -117 270 -140 88 -19 263
-14 352 11 251 69 435 264 508 535 32 122 32 357 -1 480 -62 232 -194 397
-393 490 -144 67 -325 87 -478 54z m189 -360 c96 -31 186 -106 231 -194 64
-126 64 -335 -1 -462 -34 -67 -113 -142 -180 -173 -208 -93 -438 -16 -535 180
-140 284 10 626 291 663 72 10 135 5 194 -14z"/>
<path d="M17805 12830 c-106 -21 -239 -96 -292 -164 -12 -14 -24 -26 -27 -26
-3 0 -6 38 -6 85 l0 85 -210 0 -210 0 0 -770 0 -770 210 0 210 0 0 438 c0 240
5 468 10 506 13 88 53 178 97 216 53 47 99 63 183 64 125 1 203 -52 236 -160
11 -38 14 -146 14 -556 l0 -508 218 2 217 3 5 500 c6 556 5 551 75 633 98 114
316 118 401 6 52 -68 54 -86 54 -636 l0 -508 215 0 215 0 0 578 c0 474 -3 588
-15 640 -38 160 -131 261 -296 319 -66 24 -89 26 -219 27 -126 1 -153 -2 -210
-22 -106 -36 -178 -84 -247 -164 l-32 -37 -21 33 c-51 83 -166 153 -296 181
-74 16 -213 18 -279 5z"/>
<path d="M20140 12834 c-335 -64 -556 -274 -621 -589 -17 -83 -20 -124 -16
-240 6 -161 22 -235 77 -350 71 -146 172 -249 315 -319 145 -72 338 -104 517
-85 194 20 335 84 464 213 64 64 90 99 124 169 24 48 40 90 37 94 -4 3 -76 17
-159 29 -84 13 -169 25 -190 28 -34 6 -37 4 -62 -38 -60 -103 -167 -159 -306
-160 -214 -2 -360 120 -395 332 l-7 42 570 0 570 0 7 58 c7 66 -8 227 -31 317
-46 183 -176 347 -335 423 -131 63 -182 74 -369 77 -91 2 -176 1 -190 -1z
m315 -323 c93 -41 161 -130 180 -233 l7 -38 -351 0 -351 0 0 23 c0 31 52 136
85 170 73 76 165 108 295 104 61 -2 99 -10 135 -26z"/>
<path d="M21920 12825 c-87 -20 -197 -75 -259 -131 l-51 -46 0 81 0 81 -215 0
-215 0 0 -770 0 -770 213 2 212 3 5 490 5 490 29 63 c56 122 152 177 306 176
130 -1 205 -45 251 -146 l24 -53 3 -513 3 -512 212 2 212 3 0 570 c0 514 -2
576 -18 634 -47 171 -157 280 -337 336 -77 24 -294 29 -380 10z"/>
<path d="M24175 12829 c-196 -33 -351 -138 -407 -278 -19 -47 -23 -75 -23
-171 0 -104 3 -120 27 -172 62 -133 190 -211 486 -298 236 -69 294 -100 322
-175 13 -34 6 -87 -17 -121 -8 -13 -35 -33 -61 -45 -61 -30 -182 -32 -261 -5
-68 23 -140 93 -166 159 -10 26 -20 47 -24 47 -3 -1 -82 -23 -176 -50 l-170
-48 3 -29 c6 -53 61 -153 117 -212 97 -102 239 -161 439 -181 250 -25 495 39
616 162 168 170 159 477 -18 639 -77 71 -189 120 -402 179 -288 80 -325 102
-325 190 0 82 71 131 194 133 128 2 217 -45 266 -143 l24 -48 88 19 c246 55
238 52 235 79 -7 54 -72 171 -122 220 -67 65 -188 124 -299 144 -88 17 -262
19 -346 5z"/>
<path d="M9754 12793 c4 -10 149 -357 324 -770 l317 -753 181 0 c134 0 184 3
191 13 7 9 518 1203 638 1490 l15 37 -227 0 -228 0 -189 -520 c-105 -286 -192
-520 -195 -520 -3 0 -35 80 -70 178 -35 97 -120 331 -189 520 l-125 342 -224
0 c-210 0 -225 -1 -219 -17z"/>
</g>
</svg>
