
        <svg xmlns="http://www.w3.org/2000/svg" xmlns:xlink="http://www.w3.org/1999/xlink" version="1.1" width="3153.846153846154" 
        height="1515.3846153846155" viewBox="0 0 3153.846153846154 1515.3846153846155">
			
			<g transform="scale(7.6923076923076925) translate(10, 10)">
				<defs id="SvgjsDefs1975"></defs><g id="SvgjsG1976" featureKey="rootContainer" transform="matrix(1,0,0,1,0,0)" fill="#111111"><rect xmlns="http://www.w3.org/2000/svg" width="390" height="177" rx="10" ry="10"></rect></g><g id="SvgjsG1977" featureKey="nameFeature-0" transform="matrix(2.107595682144165,0,0,2.107595682144165,18.819745549190863,-4.785321357433617)" fill="#ffc93c"><path d="M14 27.32 c0 -1.64 -0.36 -4.6 -2.6 -4.6 c-1.56 0 -2.24 1.48 -2.24 2.88 c0 1.52 0.4 4.84 2.44 4.84 c1.8 0 2.4 -1.56 2.4 -3.12 z M6.48 42 c0 2.12 3.12 2.68 4.68 2.68 c1.32 0 4.32 -0.2 4.32 -2.04 c0 -0.84 -0.8 -1.2 -1.56 -1.2 c-0.6 0 -2.16 0.24 -3.44 0.24 c-0.92 0 -3.08 -0.32 -3.52 -0.32 c-0.36 0 -0.48 0.36 -0.48 0.64 z M24 39.68 c0 3.6 -3.44 8.44 -13.24 8.44 c-7.4 0 -10.2 -2.8 -10.2 -5.36 c0 -2.32 2.2 -2.36 2.2 -2.96 c0 -0.52 -2.16 -1.64 -2.16 -3.4 c0 -2.84 3.24 -3.68 3.24 -4.24 c0 -0.48 -2.72 -2.32 -2.72 -5.28 c0 -4.84 6.04 -7.08 10.08 -7.08 c2.04 0 4.8 0.76 6.2 0.76 c3.04 0 4.56 -2.12 5.16 -2.12 c0.92 0 1.32 1.2 1.32 1.96 c0 2.24 -2.24 3.84 -2.24 4.28 c0 0.4 0.12 0.84 0.12 1.24 c0 5.4 -6.28 7.24 -10.68 7.24 c-0.68 0 -1.36 -0.12 -2.08 -0.12 c-0.68 0 -1.08 0.44 -1.08 1.08 c0 1.24 1.76 1.48 2.68 1.48 c1.24 0 5.88 -0.68 7.48 -0.68 c4.16 0 5.92 2.36 5.92 4.76 z M34.511 31.4 c-1.36 0 -2.28 1.28 -2.28 2.56 c0 1.04 0.56 2.16 1.72 2.16 c1.52 0 1.64 -1.64 1.64 -2.84 c0 -0.88 0.04 -1.88 -1.08 -1.88 z M44.231 26.439999999999998 l0 4 c0 7.04 2.4 3.2 2.4 5.36 c0 2.28 -3.12 4.76 -6.04 4.76 c-3.16 0 -3.24 -2.04 -4.24 -2.04 c-0.48 0 -1 0.52 -1.88 1 c-0.88 0.52 -2.08 1.04 -3.92 1.04 c-3.32 0 -6.64 -1.76 -6.64 -5.72 c0 -2.84 2.72 -6.36 9.76 -6.36 c1.24 0 1.8 0.08 1.8 -1.36 c0 -1.32 -0.04 -4.08 -1.88 -4.08 c-2.4 0 -2.64 4.32 -6.2 4.32 c-1.28 0 -2.24 -0.92 -2.24 -2.2 c0 -3.4 6.76 -5.6 10.56 -5.6 c2.28 0 8.52 0.88 8.52 6.88 z M49.062 32.519999999999996 l0 -3.68 c0 -2.56 -0.52 -3.28 -0.92 -3.64 c-0.52 -0.44 -1.08 -0.4 -1.08 -1.44 c0 -2.96 9.92 -4.08 10 -4.08 c1 0 1.08 0.88 1.08 1.72 c0 0.48 -0.16 1.84 0.68 1.84 c0.4 0 1.04 -0.88 2.16 -1.8 c1.12 -0.88 2.72 -1.76 5.08 -1.76 c4.76 0 4.8 3.56 5.64 3.56 c0.32 0 1.04 -0.88 2.2 -1.8 c1.2 -0.88 2.8 -1.76 4.84 -1.76 c3.8 0 6.16 2.08 6.16 6 l0 8.44 c0 2.32 1.48 2.52 1.48 3.68 c0 2.52 -4.56 2.64 -6.12 2.64 c-1.32 0 -5.96 -0.28 -5.96 -2.36 c0 -1.48 1.4 -1.44 1.4 -3.76 l0 -3.6 c0 -1.68 0.2 -5.04 -2.08 -5.04 c-2.24 0 -2.04 2.72 -2.04 4.2 l0 2.48 c0 4.92 1.44 4.08 1.44 5.56 c0 2.48 -4.8 2.52 -6.24 2.52 c-6.04 0 -6.36 -1.12 -6.32 -2.24 c0.04 -2.12 2.04 -0.44 1.92 -5.2 l0 -2.28 c0 -1.44 0.2 -5.04 -2.08 -5.04 c-2.24 0 -2.04 2.72 -2.04 4.2 l0 3.24 c0 3.68 1.08 3.44 1.08 4.88 c0 1.04 -0.92 2.44 -6.4 2.44 c-1.56 0 -6.28 0.04 -6.28 -2.08 c0 -1.8 2.4 -0.84 2.4 -5.84 z M105.133 30.8 l-8.68 0 c-0.44 0 -1.08 -0.12 -1.08 0.56 c0 2 2.6 3.68 4.48 3.68 c3 0 4.48 -1.8 5.32 -1.8 s1.56 1.24 1.56 2 c0 3.08 -5.64 5.32 -9.24 5.32 c-7.2 0 -10.92 -5.2 -10.92 -10.36 c0 -6.16 5.24 -10.64 11.24 -10.64 c6.8 0 9.8 5.24 9.8 8.24 c0 2.64 -1.2 3 -2.48 3 z M97.57300000000001 26.96 c1.08 0 2.36 0.24 2.36 -1.2 s-0.88 -2.56 -2.36 -2.56 c-1.32 0 -2.4 1.36 -2.4 2.64 c0 1.44 1.36 1.12 2.4 1.12 z M110.564 33.96 l0.32 -4.32 c0.08 -1.24 -0.32 -1.88 -1.6 -1.88 c-0.48 0 -1.72 0.2 -1.72 -0.52 c0 -3.16 -0.24 -3.52 0.96 -3.6 c0.48 -0.04 1.12 -0.08 1.12 -0.76 c0 -0.76 -1.52 -2.24 -1.52 -4.76 c0 -4.76 4.92 -6.36 8.92 -6.36 c6.52 0 8.04 3.44 8.04 5.16 c0 1.68 -1.36 3.08 -3.04 3.08 c-3.48 0 -3.92 -3.6 -6.2 -3.6 c-0.8 0 -1.36 0.64 -1.36 1.44 c0 2.52 4.16 3.36 4.88 5.12 c0.12 0.32 0.16 0.44 0.56 0.44 c1.68 0 3.96 -0.44 3.88 0.76 l-0.2 2.92 c-0.04 0.6 -0.48 0.68 -1.04 0.68 c-2.36 0 -2.76 -0.04 -2.76 2.6 c0 1.12 0.12 2.52 0.4 3.56 c0.72 2.4 3.56 1.12 3.56 3.6 c0 0.96 -0.08 2.92 -9.08 2.92 c-1.92 0 -7.08 -0.04 -7.08 -2.84 c0 -2.24 2.8 -1.2 2.96 -3.64 z M136.195 21.2 l0 10.16 c0 1.6 0.12 4.08 2.28 4.08 c2.88 0 2.48 -3.76 2.48 -5.68 c0 -1.32 0.04 -3.04 -0.16 -4.32 c-0.32 -2 -2.28 -1.32 -2.28 -3 c0 -2.36 8.04 -2.76 9.56 -2.76 c1.44 0 2.04 0.84 2.04 2.24 c0 1.28 -0.08 2.52 -0.08 3.8 l0 8.04 c0 2.4 2.2 1.28 2.2 3.2 c0 2.72 -7.08 3.48 -9.28 3.48 c-3.08 0 -1.04 -2.4 -2.64 -2.4 c-0.44 0 -1.08 0.6 -2.04 1.2 s-2.24 1.2 -4 1.2 c-7.6 0 -6.96 -6 -6.96 -12 c0 -6.12 -2.76 -3.44 -2.76 -6.08 c0 -2.56 10.08 -2.68 10.4 -2.68 c1.12 0 1.24 0.52 1.24 1.52 z M164.22600000000003 25.08 l0 7.76 c0 0.72 -0.04 2.04 0.16 2.68 c0.44 1.44 2.24 0.76 2.24 2.44 c0 2.68 -4.88 2.48 -6.6 2.48 c-1.8 0 -7.4 0.2 -7.4 -2.64 c0 -1.4 1.72 -0.88 2.2 -2.36 c0.52 -1.64 0.52 -6.64 0.52 -8.6 c0 -1.56 0.08 -4.56 -0.28 -6.36 c-0.6 -2.96 -2.96 -1.92 -2.96 -4.2 c0 -3.48 10.4 -4.32 10.96 -4.32 c1.36 0 1.68 0.88 1.68 2.08 c0 0.92 -0.52 5.32 -0.52 11.04 z"></path></g><g id="SvgjsG1978" featureKey="sloganFeature-0" transform="matrix(1.9940359592437744,0,0,1.9940359592437744,73.67588015048224,107.0298199450382)" fill="#ffc93c"><path d="M8.5742 5 l2.8125 0 l0 15 l-2.666 0 l-0.068359 -1.3086 c-0.57617 0.98633 -1.7871 1.543 -3.1543 1.543 c-2.6465 0 -4.834 -1.9531 -4.834 -5.2344 s2.1973 -5.2344 4.834 -5.2344 c1.3184 0 2.4805 0.49805 3.0762 1.4063 l0 -6.1719 z M6.1426 17.9004 c1.4941 0 2.6563 -1.1426 2.6563 -2.9004 s-1.1719 -2.9102 -2.6563 -2.9102 c-1.4941 0 -2.666 1.1035 -2.666 2.9102 c0 1.7969 1.1719 2.9004 2.666 2.9004 z M22.29692578125 14.834 l-0.029297 0.67383 l-7.4414 0 c0.11719 1.6699 1.2305 2.4707 2.5684 2.4707 c1.0059 0 1.7871 -0.46875 2.168 -1.3574 l2.5781 0.38086 c-0.66406 2.0313 -2.4707 3.1934 -4.7266 3.1934 c-3.2422 0 -5.3613 -1.9141 -5.3613 -5.2148 s2.1777 -5.2344 5.2734 -5.2344 c2.8418 0 4.9609 1.5723 4.9707 5.0879 z M17.34622578125 11.7383 c-1.2793 0 -2.168 0.5957 -2.4414 1.9336 l4.6094 0 c-0.14648 -1.2793 -1.0156 -1.9336 -2.168 -1.9336 z M29.5263859375 9.961 l2.9785 0 l-4.2773 10.039 l-2.4414 0 l-4.2285 -10.039 l2.959 0 l2.5 6.8652 z M41.979542968749996 14.834 l-0.029297 0.67383 l-7.4414 0 c0.11719 1.6699 1.2305 2.4707 2.5684 2.4707 c1.0059 0 1.7871 -0.46875 2.168 -1.3574 l2.5781 0.38086 c-0.66406 2.0313 -2.4707 3.1934 -4.7266 3.1934 c-3.2422 0 -5.3613 -1.9141 -5.3613 -5.2148 s2.1777 -5.2344 5.2734 -5.2344 c2.8418 0 4.9609 1.5723 4.9707 5.0879 z M37.02884296875 11.7383 c-1.2793 0 -2.168 0.5957 -2.4414 1.9336 l4.6094 0 c-0.14648 -1.2793 -1.0156 -1.9336 -2.168 -1.9336 z M42.675803125 20 l0 -15 l2.8418 0 l0 15 l-2.8418 0 z M51.66258515625 20.19531 c-3.1934 0 -5.498 -1.9434 -5.498 -5.2246 c0 -3.2617 2.2852 -5.2051 5.498 -5.2051 c3.2324 0 5.5078 1.9434 5.5078 5.2051 c0 3.2813 -2.2852 5.2246 -5.5078 5.2246 z M51.63328515625 17.959 c1.6309 0 2.7441 -1.1914 2.7441 -2.9883 s-1.1133 -2.9883 -2.7441 -2.9883 c-1.5723 0 -2.6758 1.1914 -2.6758 2.9883 s1.1035 2.9883 2.6758 2.9883 z M63.7061046875 9.766 c2.6465 0 4.834 1.9434 4.834 5.2344 s-2.1875 5.2344 -4.834 5.2344 c-1.3086 0 -2.4805 -0.50781 -3.0762 -1.4258 l0 6.0742 l-2.8125 0 l0 -14.922 l2.666 0 l0.078125 1.3477 c0.55664 -0.99609 1.7773 -1.543 3.1445 -1.543 z M63.0713046875 17.9004 c1.4746 0 2.6563 -1.0742 2.6563 -2.9004 s-1.1816 -2.9004 -2.6563 -2.9004 c-1.5039 0 -2.6758 1.1426 -2.6758 2.9004 s1.1719 2.9004 2.6758 2.9004 z M81.11123046875 9.766 c2.1484 0 3.5352 1.0938 3.5352 3.1543 l0 7.0801 l-2.8125 0 l0 -6.2793 c0 -1.1816 -0.74219 -1.6992 -1.582 -1.6992 c-1.0059 0 -1.8945 0.57617 -1.8945 2.3145 l0 5.6641 l-2.8418 0 l0 -6.25 c0 -1.2012 -0.72266 -1.7285 -1.6113 -1.7285 c-0.97656 0 -1.8848 0.57617 -1.8848 2.4609 l0 5.5176 l-2.8027 0 l0 -10.039 l2.8027 0 l0 1.1816 c0.66406 -0.88867 1.6797 -1.377 2.9102 -1.377 c1.4551 0 2.5488 0.52734 3.0762 1.5039 c0.70313 -1.0059 1.7773 -1.5039 3.1055 -1.5039 z M95.380421875 14.834 l-0.029297 0.67383 l-7.4414 0 c0.11719 1.6699 1.2305 2.4707 2.5684 2.4707 c1.0059 0 1.7871 -0.46875 2.168 -1.3574 l2.5781 0.38086 c-0.66406 2.0313 -2.4707 3.1934 -4.7266 3.1934 c-3.2422 0 -5.3613 -1.9141 -5.3613 -5.2148 s2.1777 -5.2344 5.2734 -5.2344 c2.8418 0 4.9609 1.5723 4.9707 5.0879 z M90.429721875 11.7383 c-1.2793 0 -2.168 0.5957 -2.4414 1.9336 l4.6094 0 c-0.14648 -1.2793 -1.0156 -1.9336 -2.168 -1.9336 z M102.00438203125 9.766 c2.4121 0 3.7402 1.25 3.7402 3.4766 l0 6.7578 l-2.8223 0 l0 -6.1523 c0 -1.3379 -0.83008 -1.8262 -1.7969 -1.8262 c-1.1621 0 -2.2168 0.58594 -2.2363 2.4414 l0 5.5371 l-2.8125 0 l0 -10.039 l2.8125 0 l0 1.1133 c0.70313 -0.83008 1.7871 -1.3086 3.1152 -1.3086 z M110.7665890625 20 c-1.9531 0 -3.0664 -1.1328 -3.0664 -3.1348 l0 -4.7461 l-1.9727 0 l0 -2.1582 l0.63477 0 c1.0645 0 1.6504 -0.41016 1.6504 -1.9141 l0 -1.3281 l2.5391 0 l0 3.2422 l2.0703 0 l0 2.1582 l-2.0703 0 l0 4.4434 c0 0.89844 0.43945 1.2988 1.1621 1.2988 l0.9082 0 l0 2.1387 l-1.8555 0 z M116.89205546875 20.19531 c-2.2559 0 -4.0039 -0.88867 -4.3652 -2.793 l2.3535 -0.66406 c0.30273 1.0742 1.0645 1.4941 2.0117 1.4941 c0.69336 0 1.4453 -0.21484 1.4258 -1.0059 c-0.0097656 -1.0449 -1.5918 -1.1328 -3.1836 -1.6992 c-1.2012 -0.41992 -2.3535 -1.0645 -2.3535 -2.7539 c0 -2.0605 1.709 -3.0078 3.9355 -3.0078 c1.9531 0 3.584 0.74219 3.9746 2.6563 l-2.1777 0.48828 c-0.30273 -0.9375 -0.9668 -1.2695 -1.7871 -1.2695 c-0.74219 0 -1.377 0.26367 -1.377 0.88867 c0 0.79102 1.1621 0.94727 2.4219 1.2891 c1.5527 0.41992 3.252 1.0938 3.252 3.2422 c0 2.3047 -1.9629 3.1348 -4.1309 3.1348 z"></path></g>
			</g>
		</svg>
	